<?xml version="1.0" encoding="UTF-8"?>
<svg id="Camada_2" data-name="Camada 2" xmlns="http://www.w3.org/2000/svg" viewBox="0 0 37.17 37.05">
  <defs>
    <style>
      .cls-1 {
        fill: #89b574;
        stroke: #000;
        stroke-miterlimit: 10;
      }
    </style>
  </defs>
  <g id="Camada_1-2" data-name="Camada 1">
    <path class="cls-1" d="M11.21,1.35c.57-.24,1.11-.56,1.7-.72,1.15-.31,2.31.33,2.85,1.49.22.47.4.96.63,1.42.42.84,1.15,1.19,2.06,1.18.93-.02,1.59-.5,1.97-1.33.2-.44.36-.9.54-1.36.5-1.24,1.92-1.86,3.16-1.37.92.36,1.84.73,2.76,1.1,1.36.55,1.92,1.84,1.38,3.21-.16.42-.36.84-.52,1.26-.35.91-.14,1.74.53,2.4.64.64,1.45.84,2.33.5.53-.2,1.04-.46,1.58-.62,1.26-.37,2.11-.09,2.73,1.07.57,1.07,1.04,2.2,1.42,3.35.39,1.17-.18,2.22-1.32,2.73-.44.2-.9.37-1.34.58-.9.44-1.3,1.18-1.26,2.17.04.93.53,1.56,1.39,1.91.61.25,1.26.46,1.81.82.95.6,1.26,1.78.86,2.82-.37.95-.75,1.9-1.14,2.85-.5,1.2-1.81,1.79-3.05,1.38-.45-.15-.88-.35-1.32-.51-.95-.35-1.83-.25-2.54.51-.69.75-.83,1.62-.42,2.57.19.43.38.86.56,1.3.49,1.24-.08,2.57-1.3,3.1-.86.37-1.74.72-2.59,1.12-1.18.55-2.63.04-3.24-1.27-.2-.43-.37-.86-.56-1.3-.37-.86-1.19-1.39-2.1-1.37-.99.02-1.68.5-2.07,1.42-.17.4-.32.82-.49,1.22-.55,1.32-1.9,1.9-3.24,1.39-.92-.35-1.84-.72-2.76-1.09-1.29-.53-1.85-1.86-1.34-3.16.15-.38.29-.76.45-1.13.39-.93.29-1.79-.41-2.51-.73-.75-1.62-.89-2.58-.49-.43.18-.86.36-1.29.53-1.29.53-2.63-.01-3.18-1.29-.34-.79-.64-1.6-1.03-2.37-.64-1.25-.2-2.8,1.35-3.49.36-.16.72-.31,1.07-.46.98-.43,1.49-1.15,1.47-2.12-.02-1.04-.56-1.72-1.5-2.11-.31-.13-.63-.26-.95-.38-1.6-.59-2.17-1.91-1.51-3.5.35-.84.7-1.68,1.05-2.52.53-1.27,1.93-1.85,3.21-1.35.57.22,1.14.5,1.74.61,1.67.31,3.03-1.36,2.44-2.96-.23-.62-.53-1.22-.71-1.86-.33-1.18.27-2.33,1.4-2.82.43-.19.87-.37,1.3-.56,0,0,0,0,0,.01ZM11.43,21.59c1.66,3.98,6.23,5.77,10.14,4.13,4.06-1.71,5.92-6.3,4.14-10.34-1.75-3.98-6.28-5.67-10.16-4.04-4.06,1.7-5.84,6.4-4.12,10.25Z"/>
  </g>
</svg>