<?xml version="1.0" encoding="UTF-8"?>
<svg id="Camada_2" data-name="Camada 2" xmlns="http://www.w3.org/2000/svg" viewBox="0 0 42.27 41.72">
  <defs>
    <style>
      .cls-1 {
        stroke-width: .32px;
      }

      .cls-1, .cls-2 {
        fill: none;
      }

      .cls-1, .cls-2, .cls-3, .cls-4, .cls-5 {
        stroke: #0f0000;
      }

      .cls-1, .cls-3, .cls-4 {
        stroke-linejoin: round;
      }

      .cls-1, .cls-3, .cls-5 {
        stroke-linecap: round;
      }

      .cls-2 {
        stroke-width: 1.27px;
      }

      .cls-2, .cls-6, .cls-5 {
        stroke-miterlimit: 10;
      }

      .cls-3 {
        fill: #0f0000;
      }

      .cls-3, .cls-4, .cls-5 {
        stroke-width: .63px;
      }

      .cls-6 {
        fill: #0084a3;
        stroke: #000;
        stroke-width: 1.36px;
      }

      .cls-4 {
        fill: #fff;
      }

      .cls-5, .cls-7 {
        fill: #f1ccac;
      }

      .cls-7 {
        opacity: .5;
      }
    </style>
  </defs>
  <g id="Camada_1-2" data-name="Camada 1">
    <g>
      <g>
        <path class="cls-3" d="M32.36,1.68H13.33c-1.36,0-2.46,1.1-2.46,2.46v32.34c0,1.36,1.1,2.46,2.46,2.46h26.17c1.36,0,2.46-1.1,2.46-2.46V11.28L32.36,1.68Z"/>
        <g>
          <path class="cls-4" d="M31,.32H11.96c-1.36,0-2.46,1.1-2.46,2.46v32.34c0,1.36,1.1,2.46,2.46,2.46h26.17c1.36,0,2.46-1.1,2.46-2.46V9.91L31,.32Z"/>
          <path class="cls-4" d="M31,7.45c0,1.36,1.1,2.46,2.46,2.46h7.13L31,.32v7.13Z"/>
        </g>
        <g>
          <line class="cls-5" x1="13.76" y1="12.74" x2="37.31" y2="12.74"/>
          <line class="cls-5" x1="13.76" y1="17.17" x2="37.31" y2="17.17"/>
          <line class="cls-5" x1="13.76" y1="8.3" x2="29.47" y2="8.3"/>
          <line class="cls-5" x1="13.76" y1="21.61" x2="37.31" y2="21.61"/>
          <line class="cls-5" x1="13.76" y1="26.05" x2="37.31" y2="26.05"/>
          <line class="cls-5" x1="13.76" y1="30.48" x2="37.31" y2="30.48"/>
          <line class="cls-1" x1="39.04" y1="11.36" x2="39.04" y2="33.81"/>
          <line class="cls-1" x1="28.51" y1="35.94" x2="32.55" y2="35.94"/>
        </g>
      </g>
      <path class="cls-6" d="M26.81,40.25c-1.05,1.05-2.74,1.05-3.78,0l-7.25-7.24c.77-.44,1.49-.98,2.15-1.64.65-.65,1.2-1.37,1.64-2.14l7.24,7.24c1.05,1.05,1.05,2.74,0,3.78Z"/>
      <path class="cls-7" d="M17.93,17.04c3.96,3.96,3.96,10.37,0,14.33-3.96,3.96-10.37,3.96-14.33,0s-3.96-10.37,0-14.33c3.96-3.96,10.37-3.96,14.33,0Z"/>
      <path class="cls-2" d="M17.93,17.04c3.96,3.96,3.96,10.37,0,14.33-3.96,3.96-10.37,3.96-14.33,0s-3.96-10.37,0-14.33c3.96-3.96,10.37-3.96,14.33,0Z"/>
      <path class="cls-1" d="M7.82,31.15c-.87-.37-1.68-.9-2.38-1.61-.9-.9-1.53-1.98-1.88-3.12"/>
      <path class="cls-1" d="M3.3,23.12c.23-1.55.94-3.05,2.13-4.24,2.94-2.94,7.72-2.94,10.66,0,2.94,2.94,2.94,7.72,0,10.66-1.94,1.94-4.68,2.6-7.17,1.98"/>
    </g>
  </g>
</svg>