<?xml version="1.0" encoding="UTF-8"?>
<svg id="Camada_1" xmlns="http://www.w3.org/2000/svg" version="1.1" viewBox="0 0 4000 3000">
  <!-- Generator: Adobe Illustrator 29.7.1, SVG Export Plug-In . SVG Version: 2.1.1 Build 8)  -->
  <defs>
    <style>
      .st0 {
        fill: #212035;
      }

      .st1 {
        fill: #0082a0;
      }

      .st2 {
        fill: #f4c188;
      }

      .st3 {
        fill: #653135;
      }

      .st4 {
        fill: #ffdbc1;
      }

      .st5 {
        fill: #eda72b;
      }

      .st6 {
        fill: #ed6744;
      }

      .st7 {
        fill: #ba7f86;
      }

      .st8 {
        fill: #eee2c3;
      }

      .st9 {
        fill: #078b43;
      }
    </style>
  </defs>
  <g>
    <path class="st8" d="M679.29,262.92h2250.22v1428.04c0,60.98-49.51,110.49-110.49,110.49H789.78c-60.98,0-110.49-49.51-110.49-110.49V262.92h0Z"/>
    <path d="M2819.02,1804.07H789.78c-62.37,0-113.11-50.74-113.11-113.11V260.3h2255.47v1430.67c0,62.37-50.74,113.11-113.11,113.11ZM681.91,265.54v1425.42c0,59.48,48.39,107.87,107.87,107.87h2029.25c59.48,0,107.87-48.39,107.87-107.87V265.54H681.91Z"/>
  </g>
  <g>
    <path class="st1" d="M809.8,25h1989.2c72.03,0,130.51,58.48,130.51,130.51v107.41H679.29v-107.41c0-72.03,58.48-130.51,130.51-130.51Z"/>
    <path d="M2933.03,266.44H675.77v-110.92c0-73.91,60.13-134.03,134.03-134.03h1989.2c73.91,0,134.03,60.13,134.03,134.03v110.92ZM682.81,259.4h2243.18v-103.89c0-70.02-56.97-126.99-126.99-126.99H809.8c-70.02,0-126.99,56.97-126.99,126.99v103.89Z"/>
  </g>
  <g>
    <rect x="2689.89" y="149.87" width="114.33" height="5.24" transform="translate(696.52 1986.86) rotate(-44.99)"/>
    <rect x="2744.43" y="95.33" width="5.24" height="114.33" transform="translate(696.78 1987.14) rotate(-45)"/>
  </g>
  <path d="M2615.83,195.54h-86.09v-86.09h86.09v86.09ZM2534.99,190.29h75.6v-75.6h-75.6v75.6Z"/>
  <g>
    <polyline class="st6" points="2448.91 192.91 2408.48 192.91 2368.06 192.91"/>
    <rect x="2368.06" y="190.29" width="80.84" height="5.24"/>
  </g>
  <rect x="679.29" y="1685.94" width="2250.22" height="5.24"/>
  <rect x="2014.87" y="1688.56" width="5.24" height="112.89"/>
  <rect x="2780.28" y="260.4" width="5.24" height="1428.17"/>
  <rect class="st3" x="2782.9" y="384.12" width="146.61" height="5.24"/>
  <g>
    <polygon points="2856.2 298.89 2826.76 349.9 2885.66 349.9 2856.2 298.89"/>
    <path d="M2891.75,353.42h-71.09l35.55-61.57,35.55,61.57ZM2832.85,346.38h46.71l-23.35-40.45-23.35,40.45Z"/>
  </g>
  <rect x="2782.9" y="1562.57" width="146.61" height="5.24"/>
  <g>
    <polygon points="2856.2 1653.04 2885.66 1602.03 2826.76 1602.03 2856.2 1653.04"/>
    <path d="M2856.21,1660.08l-35.55-61.57h71.09l-35.55,61.57ZM2832.85,1605.55l23.35,40.45,23.35-40.45h-46.71Z"/>
  </g>
  <g>
    <rect class="st7" x="2782.9" y="386.74" width="146.61" height="278.5"/>
    <path d="M2932.13,667.87h-151.86v-283.75h151.86v283.75ZM2785.52,662.62h141.37v-273.26h-141.37v273.26Z"/>
  </g>
  <g>
    <rect class="st7" x="835.25" y="1709.95" width="313.38" height="69.64" rx="7.45" ry="7.45"/>
    <path d="M1141.19,1782.21h-298.49c-5.55,0-10.07-4.52-10.07-10.07v-54.74c0-5.55,4.52-10.07,10.07-10.07h298.49c5.55,0,10.07,4.52,10.07,10.07v54.74c0,5.55-4.52,10.07-10.07,10.07ZM842.7,1712.57c-2.66,0-4.83,2.17-4.83,4.83v54.74c0,2.66,2.17,4.83,4.83,4.83h298.49c2.66,0,4.83-2.17,4.83-4.83v-54.74c0-2.66-2.17-4.83-4.83-4.83h-298.49Z"/>
  </g>
  <g>
    <g>
      <path class="st5" d="M1101.39,491.61v-54.36c0-12.97,10.52-23.49,23.49-23.49h125.6c10.2,0,19.23,6.58,22.36,16.29l19.83,61.56h-191.27Z"/>
      <path d="M1297.5,495.13h-199.62v-57.88c0-14.89,12.12-27.01,27.01-27.01h125.6c11.77,0,22.1,7.53,25.71,18.73l21.31,66.16ZM1104.91,488.09h182.92l-18.34-56.96c-2.67-8.28-10.31-13.85-19.01-13.85h-125.6c-11.01,0-19.97,8.96-19.97,19.97v50.84Z"/>
    </g>
    <g>
      <path class="st5" d="M1101.39,478.63h455.89c5.7,0,10.33,4.63,10.33,10.33v255.97c0,5.7-4.63,10.33-10.33,10.33h-445.56c-5.7,0-10.33-4.63-10.33-10.33v-266.3h0Z"/>
      <path d="M1557.28,758.77h-445.56c-7.64,0-13.85-6.21-13.85-13.85v-269.81h459.41c7.64,0,13.85,6.21,13.85,13.85v255.97c0,7.64-6.21,13.85-13.85,13.85ZM1104.91,482.15v262.78c0,3.75,3.05,6.81,6.81,6.81h445.56c3.75,0,6.81-3.05,6.81-6.81v-255.97c0-3.75-3.05-6.81-6.81-6.81h-452.37Z"/>
    </g>
  </g>
  <g>
    <g>
      <path class="st5" d="M1101.39,1079.09v-54.36c0-12.97,10.52-23.49,23.49-23.49h125.6c10.2,0,19.23,6.58,22.36,16.29l19.83,61.56h-191.27Z"/>
      <path d="M1297.5,1082.61h-199.62v-57.88c0-14.89,12.12-27.01,27.01-27.01h125.6c11.77,0,22.1,7.53,25.71,18.73l21.31,66.16ZM1104.91,1075.57h182.92l-18.34-56.96c-2.67-8.28-10.31-13.85-19.01-13.85h-125.6c-11.01,0-19.97,8.96-19.97,19.97v50.84Z"/>
    </g>
    <g>
      <path class="st5" d="M1101.39,1066.11h455.89c5.7,0,10.33,4.63,10.33,10.33v255.97c0,5.7-4.63,10.33-10.33,10.33h-445.56c-5.7,0-10.33-4.63-10.33-10.33v-266.3h0Z"/>
      <path d="M1557.28,1346.25h-445.56c-7.64,0-13.85-6.21-13.85-13.85v-269.81h459.41c7.64,0,13.85,6.21,13.85,13.85v255.97c0,7.64-6.21,13.85-13.85,13.85ZM1104.91,1069.63v262.78c0,3.75,3.05,6.81,6.81,6.81h445.56c3.75,0,6.81-3.05,6.81-6.81v-255.97c0-3.75-3.05-6.81-6.81-6.81h-452.37Z"/>
    </g>
  </g>
  <g>
    <g>
      <path class="st5" d="M1910.12,1079.09v-54.36c0-12.97,10.51-23.49,23.49-23.49h125.6c10.2,0,19.23,6.58,22.36,16.29l19.83,61.56h-191.27Z"/>
      <path d="M2106.22,1082.61h-199.62v-57.88c0-14.89,12.12-27.01,27.01-27.01h125.6c11.77,0,22.1,7.53,25.71,18.73l21.31,66.16ZM1913.64,1075.57h182.92l-18.35-56.96c-2.67-8.28-10.31-13.85-19.01-13.85h-125.6c-11.01,0-19.97,8.96-19.97,19.97v50.84Z"/>
    </g>
    <g>
      <path class="st5" d="M1910.12,1066.11h455.89c5.7,0,10.33,4.63,10.33,10.33v255.97c0,5.7-4.63,10.33-10.33,10.33h-445.56c-5.7,0-10.33-4.63-10.33-10.33v-266.3h0Z"/>
      <path d="M2366.01,1346.25h-445.56c-7.64,0-13.85-6.21-13.85-13.85v-269.81h459.41c7.63,0,13.85,6.21,13.85,13.85v255.97c0,7.64-6.21,13.85-13.85,13.85ZM1913.64,1069.63v262.78c0,3.75,3.05,6.81,6.81,6.81h445.56c3.75,0,6.81-3.05,6.81-6.81v-255.97c0-3.75-3.05-6.81-6.81-6.81h-452.37Z"/>
    </g>
  </g>
  <g>
    <g>
      <path class="st5" d="M2352.85,478.63h-255.64l-15.65-48.58c-3.13-9.71-12.16-16.29-22.36-16.29h-125.6c-12.97,0-23.49,10.51-23.49,23.49v318h442.73c12.97,0,23.49-10.52,23.49-23.49v-229.65c0-12.97-10.52-23.49-23.49-23.49Z"/>
      <path d="M2352.85,758.77h-446.25v-321.52c0-14.89,12.12-27.01,27.01-27.01h125.6c11.77,0,22.1,7.53,25.71,18.73l14.86,46.14h253.08c14.89,0,27.01,12.12,27.01,27.01v229.65c0,14.89-12.12,27.01-27.01,27.01ZM1913.64,751.73h439.21c11.01,0,19.97-8.96,19.97-19.97v-229.65c0-11.01-8.96-19.97-19.97-19.97h-258.21l-16.43-51.02c-2.67-8.28-10.31-13.85-19.01-13.85h-125.6c-11.01,0-19.97,8.96-19.97,19.97v314.48Z"/>
    </g>
    <g>
      <path class="st5" d="M1913.01,755.25h442.73c12.97,0,27.42-9.29,32.26-20.74l85.8-202.77c4.85-11.45-1.74-20.74-14.71-20.74h-442.73l-103.35,244.25Z"/>
      <path d="M2355.74,758.77h-448.04l106.32-251.29h445.06c7.57,0,13.83,2.9,17.19,7.96,3.24,4.9,3.52,11.17.77,17.67l-85.8,202.77c-5.43,12.83-21.02,22.89-35.5,22.89ZM1918.32,751.73h437.42c11.47,0,24.76-8.51,29.02-18.59l85.8-202.77c1.8-4.25,1.75-8.17-.15-11.04-2.06-3.1-6.08-4.81-11.32-4.81h-440.4l-100.37,237.21Z"/>
    </g>
  </g>
  <g>
    <path d="M1095.94,909.28l14.68-61.54h21.8l14.68,61.54h-12.13l-2.99-13.19h-20.92l-2.99,13.19h-12.13ZM1113.52,885.01h15.91l-7.12-31.47h-1.58l-7.21,31.47Z"/>
    <path d="M1152.12,909.28v-10.55h8.97v-22.51h-7.91v-10.55h18.46v6.33h1.58c.82-2.4,2.23-4.26,4.22-5.58,1.99-1.32,4.34-1.98,7.03-1.98,4.34,0,7.82,1.36,10.46,4.09,2.64,2.73,3.96,6.87,3.96,12.44v1.93l-11.43,1.06v-1.23c0-2.4-.62-4.32-1.85-5.76-1.23-1.44-3.08-2.15-5.54-2.15s-4.4.85-5.8,2.55c-1.41,1.7-2.11,4.13-2.11,7.3v14.07h10.02v10.55h-30.07Z"/>
    <path d="M1240.39,926.86v-23.91h-1.58c-.88,1.93-2.33,3.68-4.35,5.23-2.02,1.55-5.11,2.33-9.27,2.33-3.58,0-6.8-.87-9.67-2.59-2.87-1.73-5.16-4.25-6.86-7.56-1.7-3.31-2.55-7.34-2.55-12.09v-1.58c0-4.69.89-8.69,2.68-12,1.79-3.31,4.16-5.85,7.12-7.6,2.96-1.76,6.2-2.64,9.71-2.64s6.31.66,8.4,1.98c2.08,1.32,3.68,3.18,4.79,5.58h1.58v-6.33h11.08v61.19h-11.08ZM1228.78,899.96c3.46,0,6.26-1.1,8.4-3.3,2.14-2.2,3.21-5.08,3.21-8.66v-1.05c0-3.57-1.07-6.46-3.21-8.66-2.14-2.2-4.94-3.3-8.4-3.3s-6.18,1.09-8.35,3.25c-2.17,2.17-3.25,5.07-3.25,8.7v1.05c0,3.63,1.08,6.54,3.25,8.7,2.17,2.17,4.95,3.25,8.35,3.25Z"/>
    <path d="M1278.37,910.51c-2.87,0-5.48-.63-7.82-1.89-2.35-1.26-4.21-3.19-5.58-5.8-1.38-2.61-2.07-5.9-2.07-9.89v-27.25h11.08v24.97c0,3.05.75,5.45,2.24,7.21s3.68,2.64,6.55,2.64c3.34,0,5.79-1.07,7.34-3.21,1.55-2.14,2.33-5.06,2.33-8.75v-22.86h11.08v43.61h-11.08v-6.33h-1.58c-1.93,5.04-6.1,7.56-12.48,7.56Z"/>
    <path d="M1317.49,909.28v-10.55h14.77v-22.51h-13.71v-10.55h24.79v33.06h12.66v10.55h-38.51ZM1337.71,861.1c-2.29,0-4.25-.8-5.89-2.42-1.64-1.61-2.46-3.59-2.46-5.93s.82-4.32,2.46-5.93c1.64-1.61,3.6-2.42,5.89-2.42s4.25.81,5.89,2.42c1.64,1.61,2.46,3.59,2.46,5.93s-.82,4.32-2.46,5.93c-1.64,1.61-3.6,2.42-5.89,2.42Z"/>
    <path d="M1379.91,909.28l-12.48-43.61h11.96l10.29,38.33h1.58l10.29-38.33h11.96l-12.48,43.61h-21.1Z"/>
    <path d="M1444.35,910.51c-3.99,0-7.71-.88-11.17-2.64-3.46-1.76-6.24-4.31-8.35-7.65-2.11-3.34-3.16-7.41-3.16-12.22v-1.05c0-4.75,1.05-8.81,3.16-12.18,2.11-3.37,4.89-5.93,8.35-7.69,3.46-1.76,7.18-2.64,11.17-2.64s7.71.88,11.17,2.64c3.46,1.76,6.24,4.32,8.35,7.69,2.11,3.37,3.17,7.43,3.17,12.18v1.05c0,4.81-1.06,8.88-3.17,12.22s-4.89,5.89-8.35,7.65c-3.46,1.76-7.18,2.64-11.17,2.64ZM1444.35,899.96c3.22,0,5.96-1.04,8.22-3.12,2.26-2.08,3.38-4.91,3.38-8.48v-1.76c0-3.63-1.13-6.48-3.38-8.53-2.26-2.05-5-3.08-8.22-3.08s-5.96,1.03-8.22,3.08c-2.26,2.05-3.38,4.89-3.38,8.53v1.76c0,3.58,1.13,6.4,3.38,8.48,2.26,2.08,5,3.12,8.22,3.12Z"/>
    <path d="M1530.86,909.28v-11.08h17.41v-44.66h-1.58l-5.8,21.1h-11.08v-1.05l7.38-25.85h22.68v50.46h15.3v11.08h-44.31Z"/>
  </g>
  <g>
    <path d="M1902.4,914.18l14.68-61.55h21.81l14.68,61.55h-12.13l-2.99-13.19h-20.93l-2.99,13.19h-12.13ZM1919.98,889.91h15.91l-7.12-31.48h-1.58l-7.21,31.48Z"/>
    <path d="M1958.58,914.18v-10.55h8.97v-22.51h-7.91v-10.55h18.46v6.33h1.58c.82-2.4,2.23-4.26,4.22-5.58,1.99-1.32,4.34-1.98,7.03-1.98,4.34,0,7.83,1.36,10.46,4.09,2.64,2.73,3.96,6.87,3.96,12.44v1.93l-11.43,1.06v-1.23c0-2.4-.62-4.32-1.85-5.76-1.23-1.44-3.08-2.15-5.54-2.15s-4.4.85-5.8,2.55c-1.41,1.7-2.11,4.13-2.11,7.3v14.07h10.02v10.55h-30.07Z"/>
    <path d="M2046.85,931.76v-23.92h-1.58c-.88,1.93-2.33,3.68-4.35,5.23-2.02,1.55-5.12,2.33-9.28,2.33-3.58,0-6.8-.87-9.67-2.59s-5.16-4.25-6.86-7.56c-1.7-3.31-2.55-7.34-2.55-12.09v-1.58c0-4.69.89-8.69,2.68-12,1.79-3.31,4.16-5.85,7.12-7.6,2.96-1.76,6.2-2.64,9.72-2.64s6.32.66,8.4,1.98c2.08,1.32,3.68,3.18,4.79,5.58h1.58v-6.33h11.08v61.2h-11.08ZM2035.25,904.86c3.46,0,6.26-1.1,8.4-3.3,2.14-2.2,3.21-5.08,3.21-8.66v-1.06c0-3.57-1.07-6.46-3.21-8.66-2.14-2.2-4.94-3.3-8.4-3.3s-6.18,1.08-8.35,3.25c-2.17,2.17-3.25,5.07-3.25,8.7v1.06c0,3.63,1.08,6.54,3.25,8.7,2.17,2.17,4.95,3.25,8.35,3.25Z"/>
    <path d="M2084.84,915.41c-2.87,0-5.48-.63-7.83-1.89-2.34-1.26-4.21-3.19-5.58-5.8-1.38-2.61-2.07-5.9-2.07-9.89v-27.26h11.08v24.97c0,3.05.75,5.45,2.24,7.21,1.49,1.76,3.68,2.64,6.55,2.64,3.34,0,5.79-1.07,7.34-3.21,1.55-2.14,2.33-5.06,2.33-8.75v-22.86h11.08v43.61h-11.08v-6.33h-1.58c-1.93,5.04-6.1,7.56-12.48,7.56Z"/>
    <path d="M2123.96,914.18v-10.55h14.77v-22.51h-13.72v-10.55h24.79v33.06h12.66v10.55h-38.51ZM2144.19,865.99c-2.29,0-4.25-.81-5.89-2.42-1.64-1.61-2.46-3.59-2.46-5.93s.82-4.32,2.46-5.94c1.64-1.61,3.61-2.42,5.89-2.42s4.25.81,5.89,2.42c1.64,1.61,2.46,3.59,2.46,5.94s-.82,4.32-2.46,5.93c-1.64,1.61-3.6,2.42-5.89,2.42Z"/>
    <path d="M2186.39,914.18l-12.48-43.61h11.96l10.29,38.33h1.58l10.29-38.33h11.96l-12.49,43.61h-21.1Z"/>
    <path d="M2250.84,915.41c-3.99,0-7.71-.88-11.17-2.64-3.46-1.76-6.24-4.31-8.35-7.65-2.11-3.34-3.17-7.41-3.17-12.22v-1.06c0-4.75,1.06-8.81,3.17-12.18,2.11-3.37,4.89-5.93,8.35-7.69,3.46-1.76,7.18-2.64,11.17-2.64s7.71.88,11.17,2.64c3.46,1.76,6.24,4.32,8.35,7.69,2.11,3.37,3.17,7.43,3.17,12.18v1.06c0,4.81-1.05,8.88-3.17,12.22s-4.9,5.89-8.35,7.65c-3.46,1.76-7.18,2.64-11.17,2.64ZM2250.84,904.86c3.22,0,5.96-1.04,8.22-3.12,2.26-2.08,3.38-4.91,3.38-8.48v-1.76c0-3.63-1.13-6.48-3.38-8.53-2.26-2.05-5-3.08-8.22-3.08s-5.97,1.03-8.22,3.08c-2.26,2.05-3.38,4.9-3.38,8.53v1.76c0,3.58,1.13,6.4,3.38,8.48,2.26,2.08,5,3.12,8.22,3.12Z"/>
    <path d="M2337.27,914.18v-12.13c0-4.28.84-7.77,2.51-10.46,1.67-2.7,4.06-4.82,7.17-6.37,3.11-1.55,6.74-2.8,10.9-3.74,3.11-.7,5.5-1.54,7.17-2.51,1.67-.97,2.83-2.1,3.47-3.39.64-1.29.97-2.78.97-4.48,0-2.46-.89-4.51-2.68-6.15-1.79-1.64-4.26-2.46-7.43-2.46-3.34,0-6.01,1.01-8,3.03-1.99,2.02-2.99,4.82-2.99,8.4v3.87h-11.61v-4.92c0-3.87.89-7.43,2.68-10.68,1.79-3.25,4.34-5.86,7.65-7.83,3.31-1.96,7.28-2.95,11.91-2.95,4.92,0,9.03.91,12.31,2.73,3.28,1.82,5.73,4.19,7.34,7.12,1.61,2.93,2.42,6.04,2.42,9.32v1.06c0,5.1-1.45,9.36-4.35,12.79s-7.64,5.91-14.2,7.43c-3.69.82-6.52,1.71-8.48,2.68-1.96.97-3.31,2.05-4.04,3.25-.73,1.2-1.1,2.62-1.1,4.26v1.05h31.65v11.08h-43.26Z"/>
  </g>
  <g>
    <path d="M1093.67,1487.58l14.68-61.55h21.81l14.68,61.55h-12.13l-2.99-13.19h-20.93l-2.99,13.19h-12.13ZM1111.25,1463.32h15.91l-7.12-31.48h-1.58l-7.21,31.48Z"/>
    <path d="M1149.85,1487.58v-10.55h8.97v-22.51h-7.91v-10.55h18.46v6.33h1.58c.82-2.4,2.23-4.26,4.22-5.58,1.99-1.32,4.34-1.98,7.03-1.98,4.34,0,7.83,1.36,10.46,4.09s3.96,6.87,3.96,12.44v1.93l-11.43,1.06v-1.23c0-2.4-.62-4.32-1.85-5.76-1.23-1.44-3.08-2.15-5.54-2.15s-4.4.85-5.8,2.55c-1.41,1.7-2.11,4.13-2.11,7.3v14.07h10.02v10.55h-30.07Z"/>
    <path d="M1238.12,1505.17v-23.92h-1.58c-.88,1.93-2.33,3.68-4.35,5.23-2.02,1.55-5.11,2.33-9.28,2.33-3.58,0-6.8-.87-9.67-2.59-2.87-1.73-5.16-4.25-6.86-7.56-1.7-3.31-2.55-7.34-2.55-12.09v-1.58c0-4.69.89-8.69,2.68-12,1.79-3.31,4.16-5.85,7.12-7.6,2.96-1.76,6.2-2.64,9.72-2.64s6.32.66,8.4,1.98c2.08,1.32,3.68,3.18,4.79,5.58h1.58v-6.33h11.08v61.2h-11.08ZM1226.52,1478.26c3.46,0,6.26-1.1,8.4-3.3,2.14-2.2,3.21-5.08,3.21-8.66v-1.06c0-3.57-1.07-6.46-3.21-8.66-2.14-2.2-4.94-3.3-8.4-3.3s-6.18,1.08-8.35,3.25-3.25,5.07-3.25,8.7v1.06c0,3.63,1.08,6.54,3.25,8.7,2.17,2.17,4.95,3.25,8.35,3.25Z"/>
    <path d="M1276.11,1488.81c-2.87,0-5.48-.63-7.83-1.89-2.35-1.26-4.21-3.19-5.58-5.8-1.38-2.61-2.07-5.9-2.07-9.89v-27.26h11.08v24.97c0,3.05.75,5.45,2.24,7.21,1.49,1.76,3.68,2.64,6.55,2.64,3.34,0,5.79-1.07,7.34-3.21,1.55-2.14,2.33-5.06,2.33-8.75v-22.86h11.08v43.61h-11.08v-6.33h-1.58c-1.93,5.04-6.1,7.56-12.49,7.56Z"/>
    <path d="M1315.23,1487.58v-10.55h14.77v-22.51h-13.72v-10.55h24.79v33.06h12.66v10.55h-38.51ZM1335.46,1439.4c-2.29,0-4.25-.81-5.89-2.42-1.64-1.61-2.46-3.59-2.46-5.93s.82-4.32,2.46-5.94c1.64-1.61,3.6-2.42,5.89-2.42s4.25.81,5.89,2.42c1.64,1.61,2.46,3.59,2.46,5.94s-.82,4.32-2.46,5.93c-1.64,1.61-3.6,2.42-5.89,2.42Z"/>
    <path d="M1377.66,1487.58l-12.48-43.61h11.96l10.29,38.33h1.58l10.29-38.33h11.96l-12.48,43.61h-21.1Z"/>
    <path d="M1442.11,1488.81c-3.99,0-7.71-.88-11.17-2.64-3.46-1.76-6.24-4.31-8.35-7.65-2.11-3.34-3.17-7.41-3.17-12.22v-1.06c0-4.75,1.06-8.81,3.17-12.18,2.11-3.37,4.89-5.93,8.35-7.69,3.46-1.76,7.18-2.64,11.17-2.64s7.71.88,11.17,2.64c3.46,1.76,6.24,4.32,8.35,7.69,2.11,3.37,3.17,7.43,3.17,12.18v1.06c0,4.81-1.06,8.88-3.17,12.22-2.11,3.34-4.9,5.89-8.35,7.65-3.46,1.76-7.18,2.64-11.17,2.64ZM1442.11,1478.26c3.22,0,5.96-1.04,8.22-3.12,2.26-2.08,3.39-4.91,3.39-8.48v-1.76c0-3.63-1.13-6.48-3.39-8.53-2.26-2.05-5-3.08-8.22-3.08s-5.97,1.03-8.22,3.08c-2.26,2.05-3.38,4.9-3.38,8.53v1.76c0,3.58,1.13,6.4,3.38,8.48,2.26,2.08,5,3.12,8.22,3.12Z"/>
    <path d="M1550.6,1488.81c-4.63,0-8.65-.97-12.05-2.9-3.4-1.93-6.02-4.48-7.87-7.65-1.85-3.17-2.77-6.62-2.77-10.38v-3.69h11.61v3.17c0,2.81.92,5.25,2.77,7.3,1.85,2.05,4.56,3.08,8.13,3.08,3.11,0,5.5-.8,7.17-2.42,1.67-1.61,2.51-3.68,2.51-6.2,0-2.75-.89-4.76-2.68-6.02-1.79-1.26-4.06-1.89-6.81-1.89h-6.86v-18.29l15.3-4.22v-1.58h-30.6v-11.08h40.09v19.34l-16.35,4.75v1.58h2.11c2.93,0,5.73.62,8.4,1.85,2.67,1.23,4.84,3.08,6.51,5.54,1.67,2.46,2.51,5.57,2.51,9.32v1.06c0,3.64-.81,6.92-2.42,9.85-1.61,2.93-3.99,5.25-7.12,6.95-3.14,1.7-6.99,2.55-11.56,2.55Z"/>
  </g>
  <g>
    <path class="st3" d="M1822.54,1515.74v-95.12h60.88v17.12h-42.94v21.74h42.12v17.12h-42.12v39.13h-17.94Z"/>
    <path class="st3" d="M1935.32,1517.64c-6.16,0-11.91-1.36-17.26-4.08-5.35-2.72-9.65-6.66-12.91-11.82-3.26-5.16-4.89-11.46-4.89-18.89v-1.63c0-7.34,1.63-13.61,4.89-18.82,3.26-5.21,7.56-9.17,12.91-11.89,5.34-2.72,11.1-4.08,17.26-4.08s11.91,1.36,17.26,4.08c5.34,2.72,9.65,6.68,12.91,11.89,3.26,5.21,4.89,11.48,4.89,18.82v1.63c0,7.43-1.63,13.72-4.89,18.89-3.26,5.16-7.56,9.1-12.91,11.82-5.35,2.72-11.1,4.08-17.26,4.08ZM1935.32,1501.33c4.98,0,9.22-1.61,12.71-4.82,3.49-3.21,5.23-7.59,5.23-13.11v-2.72c0-5.62-1.75-10.01-5.23-13.18-3.49-3.17-7.72-4.76-12.71-4.76s-9.22,1.59-12.7,4.76c-3.49,3.17-5.23,7.56-5.23,13.18v2.72c0,5.53,1.74,9.9,5.23,13.11,3.49,3.22,7.72,4.82,12.7,4.82Z"/>
    <path class="st3" d="M1987.09,1515.74v-16.31h23.64v-62.51h-22.83v-16.31h39.95v78.81h22.01v16.31h-62.78Z"/>
    <path class="st3" d="M2095.52,1517.64c-5.53,0-10.51-1.34-14.95-4.01-4.44-2.67-7.97-6.57-10.6-11.69-2.63-5.12-3.94-11.35-3.94-18.68v-2.45c0-7.25,1.38-13.43,4.14-18.55,2.76-5.12,6.43-9.04,11.01-11.75,4.57-2.72,9.58-4.08,15.01-4.08s9.76,1.02,12.98,3.06c3.21,2.04,5.68,4.92,7.41,8.63h2.45v-37.5h17.12v95.12h-17.12v-9.78h-2.45c-1.36,2.99-3.6,5.69-6.73,8.08-3.12,2.4-7.9,3.6-14.33,3.6ZM2101.1,1501.33c5.34,0,9.67-1.7,12.98-5.1,3.31-3.4,4.96-7.86,4.96-13.38v-1.63c0-5.52-1.65-9.99-4.96-13.38-3.31-3.4-7.63-5.1-12.98-5.1s-9.56,1.68-12.91,5.03c-3.35,3.35-5.03,7.84-5.03,13.45v1.63c0,5.62,1.67,10.1,5.03,13.45,3.35,3.35,7.65,5.03,12.91,5.03Z"/>
    <path class="st3" d="M2185.48,1517.64c-6.71,0-12.64-1.43-17.8-4.28-5.16-2.85-9.2-6.95-12.09-12.3-2.9-5.34-4.35-11.78-4.35-19.3v-.82c0-6.88,1.54-12.91,4.62-18.07,3.08-5.16,7.18-9.19,12.3-12.09,5.12-2.9,10.8-4.35,17.05-4.35,5.8,0,10.78,1,14.95,2.99,4.17,1.99,7.59,4.58,10.26,7.75,2.67,3.17,4.66,6.64,5.98,10.4,1.31,3.76,1.97,7.41,1.97,10.94v9.1h-49.46c.18,3.99,1.86,7.27,5.03,9.85,3.17,2.58,6.93,3.87,11.28,3.87s7.54-.77,9.85-2.31c2.31-1.54,3.92-3.31,4.82-5.3l14.68,8.15c-1,2.27-2.65,4.62-4.96,7.07-2.31,2.45-5.41,4.51-9.31,6.18-3.9,1.67-8.83,2.51-14.81,2.51ZM2169.17,1472.94h31.8c-.54-3.17-2.24-5.8-5.1-7.88-2.85-2.08-6.46-3.12-10.8-3.12s-7.77,1.11-10.53,3.33c-2.76,2.22-4.55,4.78-5.37,7.68Z"/>
    <path class="st3" d="M2232.09,1515.74v-16.31h13.86v-34.79h-12.23v-16.31h28.54v9.78h2.45c1.27-3.71,3.44-6.59,6.52-8.63,3.08-2.04,6.7-3.06,10.87-3.06,6.7,0,12.09,2.11,16.17,6.32,4.08,4.21,6.12,10.62,6.12,19.23v2.99l-17.67,1.63v-1.9c0-3.71-.95-6.68-2.85-8.9-1.9-2.22-4.76-3.33-8.56-3.33s-6.79,1.31-8.97,3.94c-2.17,2.63-3.26,6.39-3.26,11.28v21.74h15.49v16.31h-46.47Z"/>
    <path class="st3" d="M2440.26,1515.74v-17.94h-42.4v-24.73l26.36-52.45h33.97v60.06h13.86v17.12h-13.86v17.94h-17.94ZM2413.35,1480.68h26.9v-51.09h-2.45l-24.46,48.65v2.45Z"/>
  </g>
  <g>
    <path class="st8" d="M1286.21,1633.93h2250.22v1219.58c0,60.98-49.51,110.49-110.49,110.49h-2029.25c-60.98,0-110.49-49.51-110.49-110.49v-1219.58h0Z"/>
    <path d="M3425.94,2966.62h-2029.25c-62.37,0-113.11-50.74-113.11-113.11v-1222.21h2255.47v1222.21c0,62.37-50.74,113.11-113.11,113.11ZM1288.83,1636.55v1216.96c0,59.48,48.39,107.87,107.87,107.87h2029.25c59.48,0,107.87-48.39,107.87-107.87v-1216.96H1288.83Z"/>
  </g>
  <g>
    <path class="st9" d="M1416.72,1396.01h1989.2c72.03,0,130.51,58.48,130.51,130.51v107.41H1286.21v-107.41c0-72.03,58.48-130.51,130.51-130.51Z"/>
    <path d="M3539.95,1637.45H1282.69v-110.92c0-73.91,60.13-134.03,134.03-134.03h1989.2c73.91,0,134.03,60.13,134.03,134.03v110.92ZM1289.73,1630.41h2243.19v-103.89c0-70.02-56.97-126.99-126.99-126.99h-1989.2c-70.02,0-126.99,56.97-126.99,126.99v103.89Z"/>
  </g>
  <g>
    <rect x="3296.81" y="1520.88" width="114.33" height="5.24" transform="translate(-94.92 2817.84) rotate(-45)"/>
    <rect x="3351.35" y="1466.34" width="5.24" height="114.33" transform="translate(-94.91 2817.88) rotate(-45)"/>
  </g>
  <path d="M3222.75,1566.55h-86.09v-86.09h86.09v86.09ZM3141.91,1561.3h75.6v-75.6h-75.6v75.6Z"/>
  <g>
    <polyline class="st6" points="3055.83 1563.93 3015.41 1563.93 2974.98 1563.93"/>
    <rect x="2974.98" y="1561.3" width="80.84" height="5.24"/>
  </g>
  <g>
    <g>
      <path class="st4" d="M2391.66,1752.64l261.26,94.05s-67.93,271.71-399.72,253.42l138.46-347.47Z"/>
      <path class="st0" d="M2284.57,2104.51c-10.38,0-20.9-.29-31.57-.88l-4.89-.27,141.54-355.18,267.45,96.28-.77,3.09c-.17.69-17.87,69.52-76.22,135.05-34.28,38.5-75.69,68.39-123.08,88.86-50.86,21.97-108.76,33.05-172.45,33.05ZM2258.28,2096.84c166.84,7.81,264.05-60.06,316.35-118.69,50.38-56.47,69.9-115.37,74.01-129.26l-254.97-91.79-135.38,339.74Z"/>
    </g>
    <path class="st0" d="M2284.54,2104.51c-1.31,0-2.57-.74-3.18-2-.84-1.75-.1-3.86,1.66-4.69.3-.15,19.48-9.49,38.36-28.97,25.23-26.02,38.02-56.81,38.02-91.53,0-1.19.6-2.3,1.61-2.95,1-.65,2.26-.75,3.35-.26.35.16,35.68,15.75,83.55,18.06,43.95,2.12,107.87-6.85,162.71-61.69,1.38-1.37,3.6-1.37,4.98,0,1.37,1.38,1.37,3.6,0,4.98-25.05,25.05-54.02,43.01-86.09,53.38-25.64,8.29-53.29,11.78-82.19,10.34-39.2-1.94-69.55-12.24-80.96-16.66-1.58,42.95-22.46,73.29-40.09,91.41-19.8,20.36-39.37,29.83-40.19,30.23-.49.23-1.01.34-1.51.34Z"/>
  </g>
  <g>
    <g>
      <path class="st5" d="M1980.1,2005.51h-255.64l-15.65-48.58c-3.13-9.71-12.16-16.29-22.36-16.29h-125.6c-12.97,0-23.49,10.51-23.49,23.49v318h442.73c12.97,0,23.49-10.52,23.49-23.49v-229.65c0-12.97-10.52-23.49-23.49-23.49Z"/>
      <path d="M1980.1,2285.66h-446.25v-321.52c0-14.89,12.12-27.01,27.01-27.01h125.6c11.77,0,22.1,7.53,25.71,18.73l14.86,46.14h253.08c14.89,0,27.01,12.12,27.01,27.01v229.65c0,14.89-12.11,27.01-27.01,27.01ZM1540.89,2278.62h439.21c11.01,0,19.97-8.96,19.97-19.97v-229.65c0-11.01-8.96-19.97-19.97-19.97h-258.21l-16.43-51.02c-2.67-8.28-10.31-13.85-19.01-13.85h-125.6c-11.01,0-19.97,8.96-19.97,19.97v314.48Z"/>
    </g>
    <g>
      <path class="st4" d="M1565.31,2020.7h457.57v168.27c0,43.11-35,78.11-78.11,78.11h-379.46v-246.38h0Z"/>
      <path class="st0" d="M1944.77,2270.61h-382.98v-253.42h464.61v171.79c0,45.01-36.62,81.63-81.63,81.63ZM1568.83,2263.57h375.94c41.13,0,74.59-33.46,74.59-74.59v-164.75h-450.53v239.34Z"/>
    </g>
    <g>
      <path class="st5" d="M1540.25,2282.14h442.73c12.97,0,27.42-9.29,32.26-20.74l85.8-202.77c4.85-11.45-1.74-20.74-14.71-20.74h-442.73l-103.35,244.25Z"/>
      <path d="M1982.98,2285.66h-448.04l106.32-251.29h445.06c7.57,0,13.83,2.9,17.19,7.96,3.24,4.89,3.52,11.17.77,17.67l-85.8,202.77c-5.43,12.83-21.02,22.89-35.5,22.89ZM1545.57,2278.62h437.42c11.47,0,24.76-8.51,29.02-18.59l85.8-202.77c1.8-4.25,1.75-8.17-.15-11.04-2.06-3.1-6.08-4.81-11.32-4.81h-440.4l-100.37,237.21Z"/>
    </g>
  </g>
  <g>
    <g>
      <path class="st5" d="M3245.11,2004.32h-255.64l-15.65-48.58c-3.13-9.71-12.16-16.29-22.36-16.29h-125.6c-12.97,0-23.49,10.51-23.49,23.49v318h442.73c12.97,0,23.49-10.52,23.49-23.49v-229.65c0-12.97-10.52-23.49-23.49-23.49Z"/>
      <path d="M3245.11,2284.46h-446.25v-321.52c0-14.89,12.12-27.01,27.01-27.01h125.6c11.77,0,22.1,7.53,25.71,18.73l14.86,46.14h253.08c14.89,0,27.01,12.12,27.01,27.01v229.65c0,14.89-12.12,27.01-27.01,27.01ZM2805.9,2277.42h439.21c11.01,0,19.97-8.96,19.97-19.97v-229.65c0-11.01-8.96-19.97-19.97-19.97h-258.21l-16.43-51.02c-2.67-8.28-10.31-13.85-19.01-13.85h-125.6c-11.01,0-19.97,8.96-19.97,19.97v314.48Z"/>
    </g>
    <g>
      <path class="st4" d="M2830.32,2019.51h457.57v168.27c0,43.11-35,78.11-78.11,78.11h-379.46v-246.38h0Z"/>
      <path class="st0" d="M3209.78,2269.41h-382.98v-253.42h464.61v171.79c0,45.01-36.62,81.63-81.63,81.63ZM2833.84,2262.37h375.94c41.13,0,74.59-33.46,74.59-74.59v-164.75h-450.53v239.34Z"/>
    </g>
    <g>
      <path class="st5" d="M2805.27,2280.94h442.73c12.97,0,27.42-9.29,32.26-20.74l85.8-202.77c4.85-11.45-1.74-20.74-14.71-20.74h-442.73l-103.35,244.25Z"/>
      <path d="M3248,2284.46h-448.04l106.32-251.29h445.06c7.57,0,13.83,2.9,17.19,7.96,3.24,4.89,3.52,11.17.76,17.67l-85.8,202.77c-5.43,12.83-21.02,22.89-35.5,22.89ZM2810.58,2277.42h437.42c11.47,0,24.76-8.51,29.02-18.59l85.8-202.77c1.8-4.25,1.75-8.17-.15-11.04-2.06-3.1-6.08-4.81-11.32-4.81h-440.4l-100.37,237.21Z"/>
    </g>
  </g>
  <g>
    <path d="M1787.47,2499.72c-8.18,0-14.65-2.5-19.42-7.51-4.77-5.01-7.16-12.25-7.16-21.72v-15.95c0-9.2,2.38-16.37,7.16-21.52,4.77-5.15,11.25-7.72,19.42-7.72s15.01,2.39,19.48,7.16c4.46,4.77,6.7,11.25,6.7,19.42v1.84h-13.49v-1.84c0-2.25-.38-4.48-1.12-6.7-.75-2.21-2.04-4.04-3.88-5.47-1.84-1.43-4.4-2.15-7.67-2.15-3,0-5.47.73-7.41,2.2-1.94,1.47-3.37,3.41-4.29,5.83-.92,2.42-1.38,5.06-1.38,7.92v17.99c0,4.64.99,8.45,2.96,11.45,1.98,3,5.35,4.5,10.12,4.5,3.48,0,6.13-.68,7.97-2.04,1.84-1.36,3.08-3.13,3.73-5.32.65-2.18.97-4.5.97-6.95v-1.84h13.49v1.84c0,8.45-2.23,15-6.7,19.63-4.46,4.64-10.96,6.95-19.48,6.95Z"/>
    <path d="M1849.83,2499.72c-4.64,0-8.96-1.02-12.98-3.07-4.02-2.04-7.26-5.01-9.71-8.89s-3.68-8.62-3.68-14.21v-1.23c0-5.52,1.23-10.24,3.68-14.16,2.45-3.92,5.69-6.9,9.71-8.95,4.02-2.04,8.35-3.07,12.98-3.07s8.96,1.02,12.98,3.07c4.02,2.04,7.26,5.03,9.71,8.95,2.45,3.92,3.68,8.64,3.68,14.16v1.23c0,5.59-1.23,10.33-3.68,14.21-2.45,3.88-5.69,6.85-9.71,8.89-4.02,2.04-8.35,3.07-12.98,3.07ZM1849.83,2487.45c3.75,0,6.93-1.21,9.56-3.63,2.62-2.42,3.94-5.71,3.94-9.87v-2.04c0-4.22-1.31-7.53-3.94-9.92-2.62-2.38-5.81-3.58-9.56-3.58s-6.94,1.19-9.56,3.58c-2.62,2.39-3.94,5.69-3.94,9.92v2.04c0,4.16,1.31,7.45,3.94,9.87,2.62,2.42,5.81,3.63,9.56,3.63Z"/>
    <path d="M1884.79,2498.29v-50.71h12.88v4.91h1.84c.41-1.84,1.36-3.36,2.86-4.55,1.5-1.19,3.41-1.79,5.73-1.79s4.17.6,5.78,1.79c1.6,1.19,2.64,2.71,3.12,4.55h1.84c.54-1.84,1.7-3.36,3.48-4.55,1.77-1.19,3.92-1.79,6.44-1.79,3.41,0,6.13,1.14,8.18,3.42,2.04,2.28,3.07,5.44,3.07,9.46v39.26h-12.88v-35.58c0-1.43-.36-2.5-1.07-3.22-.72-.72-1.65-1.07-2.81-1.07-1.3,0-2.35.41-3.17,1.23-.82.82-1.23,2.04-1.23,3.68v34.96h-12.88v-35.58c0-1.43-.39-2.5-1.18-3.22-.78-.72-1.72-1.07-2.81-1.07-1.23,0-2.25.41-3.07,1.23-.82.82-1.23,2.04-1.23,3.68v34.96h-12.88Z"/>
    <path d="M1948.99,2518.74v-71.15h12.88v7.36h1.84c1.36-2.79,3.36-4.96,5.98-6.49,2.62-1.53,5.91-2.3,9.87-2.3s7.7,1.02,11.04,3.07c3.34,2.04,6.03,4.99,8.08,8.84,2.04,3.85,3.07,8.5,3.07,13.96v1.84c0,5.52-.99,10.21-2.96,14.06-1.98,3.85-4.64,6.78-7.97,8.79-3.34,2.01-7.09,3.02-11.25,3.02-4.57,0-8.06-.9-10.48-2.71-2.42-1.8-4.21-3.83-5.37-6.08h-1.84v27.81h-12.88ZM1975.37,2487.45c4.02,0,7.27-1.26,9.76-3.78,2.49-2.52,3.73-5.89,3.73-10.12v-1.23c0-4.23-1.24-7.6-3.73-10.12-2.49-2.52-5.74-3.78-9.76-3.78s-7.19,1.28-9.71,3.83c-2.52,2.56-3.78,5.91-3.78,10.07v1.23c0,4.16,1.26,7.51,3.78,10.07,2.52,2.56,5.76,3.83,9.71,3.83Z"/>
    <path d="M2032.72,2499.72c-4.02,0-7.74-1.02-11.14-3.07s-6.13-5.01-8.18-8.89c-2.04-3.88-3.07-8.55-3.07-14.01v-1.64c0-5.38.99-10.02,2.96-13.9,1.98-3.88,4.62-6.87,7.92-8.95,3.3-2.08,6.93-3.12,10.89-3.12,3.61,0,6.53.61,8.74,1.84,2.21,1.23,3.97,3.14,5.26,5.73h1.84v-6.13h12.88v35.37c0,2.04.92,3.07,2.76,3.07h1.94v12.27h-8.79c-2.32,0-4.21-.7-5.67-2.1-1.47-1.4-2.2-3.15-2.2-5.26h-1.84c-1.3,3.14-3.19,5.38-5.67,6.75-2.49,1.36-5.37,2.04-8.64,2.04ZM2035.58,2487.45c3.75,0,6.75-1.24,9-3.73,2.25-2.49,3.37-5.88,3.37-10.17v-1.23c0-4.29-1.12-7.68-3.37-10.17-2.25-2.49-5.25-3.73-9-3.73s-6.75,1.25-9,3.73c-2.25,2.49-3.37,5.88-3.37,10.17v1.23c0,4.29,1.12,7.68,3.37,10.17,2.25,2.49,5.25,3.73,9,3.73Z"/>
    <path d="M2073.1,2498.29v-12.27h10.43v-26.17h-9.2v-12.27h21.47v7.36h1.84c.95-2.79,2.59-4.96,4.91-6.49,2.32-1.53,5.04-2.3,8.18-2.3,5.04,0,9.1,1.58,12.17,4.75s4.6,7.99,4.6,14.47v2.25l-13.29,1.23v-1.43c0-2.79-.72-5.03-2.15-6.7-1.43-1.67-3.58-2.5-6.44-2.5s-5.11.99-6.75,2.96c-1.63,1.98-2.45,4.8-2.45,8.49v16.36h11.65v12.27h-34.96Z"/>
    <path d="M2160.82,2498.29c-2.32,0-4.21-.75-5.67-2.25-1.47-1.5-2.2-3.41-2.2-5.73v-30.46h-15.03v-12.27h15.03v-20.86h12.88v20.86h18.3v12.27h-18.3v23.1c0,2.04.92,3.07,2.76,3.07h13.7v12.27h-21.47Z"/>
    <path d="M2202.84,2498.29v-12.27h17.18v-26.17h-15.95v-12.27h28.83v38.44h14.72v12.27h-44.78ZM2226.35,2442.27c-2.66,0-4.94-.94-6.85-2.81-1.91-1.87-2.86-4.17-2.86-6.9s.95-5.03,2.86-6.9c1.91-1.87,4.19-2.81,6.85-2.81s4.94.94,6.85,2.81c1.91,1.88,2.86,4.17,2.86,6.9s-.96,5.03-2.86,6.9c-1.91,1.88-4.19,2.81-6.85,2.81Z"/>
    <path d="M2264.18,2498.29v-12.27h17.79v-47.03h-17.18v-12.27h30.06v59.29h16.56v12.27h-47.23Z"/>
    <path d="M2327.25,2498.29v-71.56h12.88v29.03h1.84c1.29-3.07,3.2-5.43,5.72-7.11,2.52-1.67,5.62-2.5,9.3-2.5,5.04,0,9.22,1.64,12.52,4.91,3.3,3.27,4.96,8.38,4.96,15.33v31.9h-12.88v-28.83c0-3.61-.87-6.46-2.61-8.54-1.74-2.08-4.24-3.12-7.51-3.12-3.75,0-6.58,1.28-8.48,3.83-1.91,2.56-2.86,5.98-2.86,10.27v26.38h-12.88Z"/>
    <path d="M2408.12,2499.72c-4.02,0-7.74-1.02-11.14-3.07-3.41-2.04-6.13-5.01-8.18-8.89s-3.07-8.55-3.07-14.01v-1.64c0-5.38.99-10.02,2.96-13.9,1.98-3.88,4.62-6.87,7.92-8.95,3.3-2.08,6.93-3.12,10.89-3.12,3.61,0,6.52.61,8.74,1.84,2.21,1.23,3.97,3.14,5.27,5.73h1.84v-6.13h12.88v35.37c0,2.04.92,3.07,2.76,3.07h1.94v12.27h-8.79c-2.32,0-4.21-.7-5.67-2.1-1.47-1.4-2.2-3.15-2.2-5.26h-1.84c-1.3,3.14-3.19,5.38-5.67,6.75-2.49,1.36-5.37,2.04-8.64,2.04ZM2410.98,2487.45c3.75,0,6.75-1.24,9-3.73,2.25-2.49,3.37-5.88,3.37-10.17v-1.23c0-4.29-1.12-7.68-3.37-10.17-2.25-2.49-5.25-3.73-9-3.73s-6.75,1.25-9,3.73c-2.25,2.49-3.37,5.88-3.37,10.17v1.23c0,4.29,1.12,7.68,3.37,10.17,2.25,2.49,5.25,3.73,9,3.73Z"/>
    <path d="M2448.5,2498.29v-12.27h10.43v-26.17h-9.2v-12.27h21.47v7.36h1.84c.95-2.79,2.59-4.96,4.91-6.49,2.32-1.53,5.04-2.3,8.18-2.3,5.04,0,9.1,1.58,12.17,4.75s4.6,7.99,4.6,14.47v2.25l-13.29,1.23v-1.43c0-2.79-.72-5.03-2.15-6.7-1.43-1.67-3.58-2.5-6.44-2.5s-5.11.99-6.75,2.96c-1.64,1.98-2.45,4.8-2.45,8.49v16.36h11.65v12.27h-34.96Z"/>
    <path d="M2595.82,2499.72c-4.02,0-7.74-1.02-11.14-3.07-3.41-2.04-6.13-5.01-8.18-8.89s-3.07-8.55-3.07-14.01v-1.64c0-5.38.99-10.02,2.96-13.9,1.98-3.88,4.62-6.87,7.92-8.95,3.3-2.08,6.93-3.12,10.89-3.12,3.61,0,6.52.61,8.74,1.84,2.21,1.23,3.97,3.14,5.27,5.73h1.84v-6.13h12.88v35.37c0,2.04.92,3.07,2.76,3.07h1.94v12.27h-8.79c-2.32,0-4.21-.7-5.67-2.1-1.47-1.4-2.2-3.15-2.2-5.26h-1.84c-1.3,3.14-3.19,5.38-5.67,6.75-2.49,1.36-5.37,2.04-8.64,2.04ZM2598.68,2487.45c3.75,0,6.75-1.24,9-3.73,2.25-2.49,3.37-5.88,3.37-10.17v-1.23c0-4.29-1.12-7.68-3.37-10.17-2.25-2.49-5.25-3.73-9-3.73s-6.75,1.25-9,3.73c-2.25,2.49-3.37,5.88-3.37,10.17v1.23c0,4.29,1.12,7.68,3.37,10.17,2.25,2.49,5.25,3.73,9,3.73Z"/>
    <path d="M2636.2,2498.29v-12.27h10.43v-26.17h-9.2v-12.27h21.47v7.36h1.84c.95-2.79,2.59-4.96,4.91-6.49,2.32-1.53,5.04-2.3,8.18-2.3,5.04,0,9.1,1.58,12.17,4.75s4.6,7.99,4.6,14.47v2.25l-13.29,1.23v-1.43c0-2.79-.72-5.03-2.15-6.7-1.43-1.67-3.58-2.5-6.44-2.5s-5.11.99-6.75,2.96c-1.64,1.98-2.45,4.8-2.45,8.49v16.36h11.65v12.27h-34.96Z"/>
    <path d="M2738.84,2518.74v-27.81h-1.84c-1.02,2.25-2.71,4.28-5.06,6.08-2.35,1.81-5.95,2.71-10.79,2.71-4.16,0-7.91-1.01-11.25-3.02-3.34-2.01-6-4.94-7.97-8.79-1.98-3.85-2.96-8.54-2.96-14.06v-1.84c0-5.45,1.04-10.1,3.12-13.96,2.08-3.85,4.84-6.8,8.28-8.84,3.44-2.04,7.21-3.07,11.3-3.07s7.34.77,9.76,2.3c2.42,1.53,4.28,3.7,5.57,6.49h1.84v-7.36h12.88v71.15h-12.88ZM2725.35,2487.45c4.02,0,7.27-1.28,9.76-3.83,2.49-2.56,3.73-5.91,3.73-10.07v-1.23c0-4.16-1.24-7.51-3.73-10.07-2.49-2.56-5.74-3.83-9.76-3.83s-7.19,1.26-9.71,3.78-3.78,5.9-3.78,10.12v1.23c0,4.23,1.26,7.6,3.78,10.12,2.52,2.52,5.76,3.78,9.71,3.78Z"/>
    <path d="M2783,2499.72c-3.34,0-6.37-.73-9.1-2.2-2.73-1.46-4.89-3.71-6.49-6.75-1.6-3.03-2.4-6.87-2.4-11.5v-31.69h12.88v29.03c0,3.54.87,6.34,2.61,8.38,1.74,2.04,4.28,3.07,7.62,3.07,3.88,0,6.73-1.24,8.54-3.73,1.8-2.49,2.71-5.88,2.71-10.17v-26.58h12.88v50.71h-12.88v-7.36h-1.84c-2.25,5.86-7.09,8.79-14.52,8.79Z"/>
    <path d="M2828.5,2498.29v-12.27h17.17v-26.17h-15.95v-12.27h28.83v38.44h14.72v12.27h-44.78ZM2852.01,2442.27c-2.66,0-4.94-.94-6.85-2.81-1.91-1.87-2.86-4.17-2.86-6.9s.95-5.03,2.86-6.9c1.91-1.87,4.19-2.81,6.85-2.81s4.94.94,6.85,2.81c1.91,1.88,2.86,4.17,2.86,6.9s-.96,5.03-2.86,6.9c-1.91,1.88-4.19,2.81-6.85,2.81Z"/>
    <path d="M2901.08,2498.29l-14.52-50.71h13.9l11.96,44.57h1.84l11.96-44.57h13.9l-14.52,50.71h-24.54Z"/>
    <path d="M2976.02,2499.72c-4.64,0-8.96-1.02-12.98-3.07-4.02-2.04-7.26-5.01-9.71-8.89-2.45-3.88-3.68-8.62-3.68-14.21v-1.23c0-5.52,1.23-10.24,3.68-14.16,2.45-3.92,5.69-6.9,9.71-8.95,4.02-2.04,8.35-3.07,12.98-3.07s8.96,1.02,12.98,3.07c4.02,2.04,7.26,5.03,9.71,8.95,2.45,3.92,3.68,8.64,3.68,14.16v1.23c0,5.59-1.23,10.33-3.68,14.21-2.45,3.88-5.69,6.85-9.71,8.89-4.02,2.04-8.35,3.07-12.98,3.07ZM2976.02,2487.45c3.75,0,6.93-1.21,9.56-3.63,2.62-2.42,3.94-5.71,3.94-9.87v-2.04c0-4.22-1.31-7.53-3.94-9.92-2.62-2.38-5.81-3.58-9.56-3.58s-6.94,1.19-9.56,3.58c-2.62,2.39-3.94,5.69-3.94,9.92v2.04c0,4.16,1.31,7.45,3.94,9.87,2.62,2.42,5.81,3.63,9.56,3.63Z"/>
    <path d="M3029.49,2476.62v-8.79c0-2.66.9-4.89,2.71-6.7,1.8-1.81,4.04-2.71,6.7-2.71h1.94c2.93,0,5.23-.94,6.9-2.81,1.67-1.87,2.5-4.28,2.5-7.21s-.99-5.28-2.96-7.26c-1.98-1.98-4.67-2.96-8.08-2.96-3.68,0-6.54,1.21-8.59,3.63-2.04,2.42-3.07,5.23-3.07,8.43v4.29h-13.5v-5.52c0-4.09.99-7.94,2.96-11.55,1.98-3.61,4.86-6.54,8.64-8.79,3.78-2.25,8.37-3.37,13.75-3.37,4.84,0,9.08,1.04,12.73,3.12,3.65,2.08,6.49,4.87,8.54,8.38,2.04,3.51,3.07,7.45,3.07,11.81v.61c0,3.68-.73,7.1-2.2,10.27-1.47,3.17-3.58,5.74-6.34,7.72-2.76,1.98-6.08,2.96-9.97,2.96-1.91,0-2.86,1.02-2.86,3.07v3.37h-12.88ZM3036.03,2499.72c-2.66,0-4.94-.94-6.85-2.81-1.91-1.87-2.86-4.17-2.86-6.9s.95-5.03,2.86-6.9c1.91-1.87,4.19-2.81,6.85-2.81s4.94.94,6.85,2.81c1.91,1.88,2.86,4.18,2.86,6.9s-.96,5.03-2.86,6.9c-1.91,1.87-4.19,2.81-6.85,2.81Z"/>
  </g>
  <g>
    <g>
      <rect class="st2" x="1761.47" y="2612.43" width="611.19" height="181.95"/>
      <path d="M2376.18,2797.9h-618.23v-188.99h618.23v188.99ZM1764.99,2790.86h604.15v-174.91h-604.15v174.91Z"/>
    </g>
    <g>
      <rect class="st2" x="2442.97" y="2612.43" width="611.19" height="181.95"/>
      <path d="M3057.68,2797.9h-618.23v-188.99h618.23v188.99ZM2446.49,2790.86h604.15v-174.91h-604.15v174.91Z"/>
    </g>
  </g>
  <g>
    <path d="M2036.77,2739.15c-8.18,0-14.62-2.5-19.32-7.51-4.7-5.01-7.05-12.25-7.05-21.72v-15.95c0-9.2,2.35-16.37,7.05-21.52,4.7-5.15,11.14-7.72,19.32-7.72s14.62,2.57,19.32,7.72c4.7,5.15,7.05,12.32,7.05,21.52v15.95c0,9.47-2.35,16.72-7.05,21.72-4.7,5.01-11.14,7.51-19.32,7.51ZM2036.77,2726.88c4.91,0,8.28-1.5,10.12-4.5,1.84-3,2.76-6.88,2.76-11.65v-17.58c0-3-.44-5.73-1.33-8.18-.89-2.45-2.27-4.4-4.14-5.83-1.88-1.43-4.35-2.15-7.41-2.15s-5.56.72-7.46,2.15c-1.91,1.43-3.29,3.37-4.14,5.83-.85,2.45-1.28,5.18-1.28,8.18v17.58c0,4.77.92,8.66,2.76,11.65,1.84,3,5.21,4.5,10.12,4.5Z"/>
    <path d="M2075.92,2737.72v-71.56h13.5v29.34h2.96l18.91-29.34h15.23v.61l-22.08,34.25v1.84l23.31,34.25v.61h-15.85l-19.53-29.34h-2.96v29.34h-13.5Z"/>
  </g>
  <g>
    <path d="M2532.11,2732.11c-8.18,0-14.65-2.5-19.42-7.51-4.77-5.01-7.16-12.25-7.16-21.72v-15.95c0-9.2,2.38-16.37,7.16-21.52,4.77-5.15,11.25-7.72,19.42-7.72s15.01,2.39,19.48,7.16c4.46,4.77,6.7,11.25,6.7,19.42v1.84h-13.5v-1.84c0-2.25-.38-4.48-1.12-6.7-.75-2.21-2.04-4.04-3.88-5.47-1.84-1.43-4.4-2.15-7.67-2.15-3,0-5.47.73-7.41,2.2-1.94,1.47-3.37,3.41-4.29,5.83-.92,2.42-1.38,5.06-1.38,7.92v17.99c0,4.64.99,8.45,2.96,11.45,1.98,3,5.35,4.5,10.12,4.5,3.48,0,6.13-.68,7.97-2.04,1.84-1.36,3.08-3.13,3.73-5.32.65-2.18.97-4.5.97-6.95v-1.84h13.5v1.84c0,8.45-2.23,15-6.7,19.63-4.46,4.64-10.96,6.95-19.48,6.95Z"/>
    <path d="M2589.66,2732.11c-4.02,0-7.74-1.02-11.14-3.07-3.41-2.04-6.13-5.01-8.18-8.89s-3.07-8.55-3.07-14.01v-1.64c0-5.38.99-10.02,2.96-13.9,1.98-3.88,4.62-6.87,7.92-8.95,3.3-2.08,6.93-3.12,10.89-3.12,3.61,0,6.52.61,8.74,1.84,2.21,1.23,3.97,3.14,5.27,5.73h1.84v-6.13h12.88v35.37c0,2.04.92,3.07,2.76,3.07h1.94v12.27h-8.79c-2.32,0-4.21-.7-5.67-2.1-1.47-1.4-2.2-3.15-2.2-5.26h-1.84c-1.3,3.14-3.19,5.38-5.67,6.75-2.49,1.36-5.37,2.04-8.64,2.04ZM2592.53,2719.84c3.75,0,6.75-1.24,9-3.73,2.25-2.49,3.37-5.88,3.37-10.17v-1.23c0-4.29-1.12-7.68-3.37-10.17-2.25-2.49-5.25-3.73-9-3.73s-6.75,1.25-9,3.73c-2.25,2.49-3.37,5.88-3.37,10.17v1.23c0,4.29,1.12,7.68,3.37,10.17,2.25,2.49,5.25,3.73,9,3.73Z"/>
    <path d="M2633.73,2730.68v-50.71h12.88v7.56h1.84c1.16-2.86,3.03-5.08,5.62-6.64,2.59-1.57,5.62-2.35,9.1-2.35,3.27,0,6.25.7,8.95,2.1,2.69,1.4,4.84,3.58,6.44,6.54,1.6,2.96,2.4,6.76,2.4,11.4v32.1h-12.88v-28.83c0-3.61-.87-6.46-2.61-8.54-1.74-2.08-4.24-3.12-7.51-3.12-3.75,0-6.58,1.28-8.49,3.83-1.91,2.56-2.86,5.98-2.86,10.27v26.38h-12.88Z"/>
    <path d="M2720.21,2732.11c-4.98,0-9.47-1.01-13.5-3.02-4.02-2.01-7.21-4.94-9.56-8.79-2.35-3.85-3.53-8.5-3.53-13.95v-1.23c0-5.45,1.19-10.17,3.58-14.16,2.38-3.99,5.59-7.05,9.61-9.2,4.02-2.15,8.49-3.22,13.39-3.22,7.09,0,12.85,1.84,17.28,5.52,4.43,3.68,7.19,8.52,8.28,14.52l-12.68,3.27c-.41-3-1.7-5.59-3.88-7.77-2.18-2.18-5.25-3.27-9.2-3.27-3.68,0-6.85,1.3-9.51,3.89-2.66,2.59-3.99,6.17-3.99,10.73v.61c0,4.57,1.33,8.01,3.99,10.33,2.66,2.32,5.83,3.48,9.51,3.48,3.95,0,6.97-.99,9.05-2.96,2.08-1.98,3.42-4.63,4.04-7.97l12.68,3.17c-1.09,6-3.82,10.84-8.18,14.52-4.36,3.68-10.16,5.52-17.38,5.52Z"/>
    <path d="M2782.68,2732.11c-5.04,0-9.51-1.07-13.39-3.22-3.88-2.15-6.92-5.23-9.1-9.25-2.18-4.02-3.27-8.86-3.27-14.52v-.61c0-5.18,1.16-9.71,3.48-13.6,2.32-3.88,5.4-6.92,9.25-9.1,3.85-2.18,8.13-3.27,12.83-3.27,4.36,0,8.11.75,11.25,2.25,3.13,1.5,5.71,3.44,7.72,5.83,2.01,2.39,3.51,4.99,4.5,7.82.99,2.83,1.48,5.57,1.48,8.23v6.85h-37.21c.14,3,1.4,5.47,3.78,7.41,2.38,1.94,5.21,2.91,8.49,2.91s5.67-.58,7.41-1.74c1.74-1.16,2.95-2.49,3.63-3.99l11.04,6.13c-.75,1.7-1.99,3.48-3.73,5.32-1.74,1.84-4.07,3.39-7,4.65-2.93,1.26-6.64,1.89-11.14,1.89ZM2770.41,2698.48h23.92c-.41-2.38-1.69-4.36-3.83-5.93-2.15-1.57-4.86-2.35-8.13-2.35s-5.84.84-7.92,2.5c-2.08,1.67-3.42,3.6-4.04,5.78Z"/>
    <path d="M2821.12,2730.68v-12.27h17.79v-47.03h-17.17v-12.27h30.06v59.29h16.56v12.27h-47.23Z"/>
    <path d="M2902.5,2732.11c-4.02,0-7.74-1.02-11.14-3.07-3.41-2.04-6.13-5.01-8.18-8.89s-3.07-8.55-3.07-14.01v-1.64c0-5.38.99-10.02,2.96-13.9,1.98-3.88,4.62-6.87,7.92-8.95,3.3-2.08,6.93-3.12,10.89-3.12,3.61,0,6.52.61,8.74,1.84,2.21,1.23,3.97,3.14,5.27,5.73h1.84v-6.13h12.88v35.37c0,2.04.92,3.07,2.76,3.07h1.94v12.27h-8.79c-2.32,0-4.21-.7-5.67-2.1-1.47-1.4-2.2-3.15-2.2-5.26h-1.84c-1.3,3.14-3.19,5.38-5.67,6.75-2.49,1.36-5.37,2.04-8.64,2.04ZM2905.36,2719.84c3.75,0,6.75-1.24,9-3.73,2.25-2.49,3.37-5.88,3.37-10.17v-1.23c0-4.29-1.12-7.68-3.37-10.17-2.25-2.49-5.25-3.73-9-3.73s-6.75,1.25-9,3.73c-2.25,2.49-3.37,5.88-3.37,10.17v1.23c0,4.29,1.12,7.68,3.37,10.17,2.25,2.49,5.25,3.73,9,3.73Z"/>
    <path d="M2942.88,2730.68v-12.27h10.43v-26.17h-9.2v-12.27h21.47v7.36h1.84c.95-2.79,2.59-4.96,4.91-6.49,2.32-1.53,5.04-2.3,8.18-2.3,5.04,0,9.1,1.58,12.17,4.75s4.6,7.99,4.6,14.47v2.25l-13.29,1.23v-1.43c0-2.79-.72-5.03-2.15-6.7-1.43-1.67-3.58-2.5-6.44-2.5s-5.11.99-6.75,2.96c-1.64,1.98-2.45,4.8-2.45,8.49v16.36h11.65v12.27h-34.96Z"/>
  </g>
</svg>