<?xml version="1.0" encoding="UTF-8"?>
<svg id="Camada_2" data-name="Camada 2" xmlns="http://www.w3.org/2000/svg" viewBox="0 0 30.56 30.56">
  <defs>
    <style>
      .cls-1 {
        fill: #fcac01;
        stroke: #000;
      }

      .cls-1, .cls-2 {
        stroke-miterlimit: 10;
      }

      .cls-2 {
        stroke-width: 1.38px;
      }

      .cls-2, .cls-3 {
        fill: none;
        stroke: #0f0000;
      }

      .cls-3 {
        stroke-linecap: round;
        stroke-linejoin: round;
        stroke-width: .34px;
      }
    </style>
  </defs>
  <g id="Camada_1-2" data-name="Camada 1">
    <path class="cls-1" d="M29.2,29.2c-1.14,1.14-2.99,1.14-4.12,0l-7.9-7.89c.84-.47,1.62-1.07,2.34-1.79.71-.71,1.31-1.5,1.79-2.33l7.89,7.89c1.14,1.14,1.14,2.99,0,4.12Z"/>
    <path class="cls-2" d="M19.53,3.92c4.31,4.31,4.31,11.3,0,15.61-4.31,4.31-11.3,4.31-15.61,0S-.39,8.23,3.92,3.92C8.23-.39,15.22-.39,19.53,3.92Z"/>
    <path class="cls-3" d="M8.51,19.29c-.94-.4-1.83-.98-2.6-1.75-.98-.98-1.67-2.16-2.05-3.4"/>
    <path class="cls-3" d="M3.6,10.54c.25-1.69,1.02-3.32,2.32-4.62,3.21-3.21,8.41-3.21,11.61,0s3.21,8.41,0,11.61c-2.12,2.12-5.1,2.84-7.81,2.16"/>
  </g>
</svg>